<svg width="64" height="64" viewBox="0 0 64 64" fill="none" xmlns="http://www.w3.org/2000/svg">
<circle cx="32" cy="32" r="28" fill="#151B26"/>
<path d="M31.3345 17.2491C31.544 16.6042 32.4564 16.6042 32.6659 17.2491L35.6149 26.325C35.7086 26.6134 35.9774 26.8087 36.2806 26.8087H45.8236C46.5017 26.8087 46.7836 27.6764 46.235 28.075L38.5146 33.6842C38.2693 33.8625 38.1666 34.1784 38.2603 34.4669L41.2092 43.5427C41.4188 44.1877 40.6807 44.7239 40.1321 44.3254L32.4116 38.7162C32.1663 38.5379 31.8341 38.5379 31.5887 38.7162L23.8683 44.3254C23.3197 44.7239 22.5816 44.1877 22.7911 43.5427L25.7401 34.4669C25.8338 34.1784 25.7311 33.8625 25.4858 33.6842L17.7654 28.075C17.2168 27.6764 17.4987 26.8087 18.1768 26.8087H27.7198C28.023 26.8087 28.2918 26.6134 28.3855 26.325L31.3345 17.2491Z" fill="url(#paint0_linear_798_1885)"/>
<defs>
<linearGradient id="paint0_linear_798_1885" x1="46.4002" y1="18.2547" x2="18.2547" y2="46.6184" gradientUnits="userSpaceOnUse">
<stop stop-color="#5390E3"/>
<stop offset="1" stop-color="#1357B3"/>
</linearGradient>
</defs>
</svg>
